<mxfile host="app.diagrams.net" modified="2020-07-29T07:25:49.927Z" agent="5.0 (Macintosh; Intel Mac OS X 10_15_4) AppleWebKit/537.36 (KHTML, like Gecko) Chrome/84.0.4147.89 Safari/537.36" etag="W2woyBf_TW9nZVVI3uva" version="13.5.4" type="github">
  <diagram id="C5RBs43oDa-KdzZeNtuy" name="Page-1">
    <mxGraphModel dx="946" dy="1734" grid="1" gridSize="10" guides="1" tooltips="1" connect="1" arrows="1" fold="1" page="1" pageScale="1" pageWidth="827" pageHeight="1169" math="0" shadow="0">
      <root>
        <mxCell id="WIyWlLk6GJQsqaUBKTNV-0" />
        <mxCell id="WIyWlLk6GJQsqaUBKTNV-1" parent="WIyWlLk6GJQsqaUBKTNV-0" />
        <mxCell id="rAar_EV4x1QA_Q4MDqU7-12" style="edgeStyle=orthogonalEdgeStyle;rounded=0;orthogonalLoop=1;jettySize=auto;html=1;exitX=0.5;exitY=1;exitDx=0;exitDy=0;entryX=0.5;entryY=0;entryDx=0;entryDy=0;shadow=0;labelBackgroundColor=none;endArrow=block;endFill=0;endSize=8;strokeWidth=1;" edge="1" parent="WIyWlLk6GJQsqaUBKTNV-1" source="rAar_EV4x1QA_Q4MDqU7-0" target="rAar_EV4x1QA_Q4MDqU7-5">
          <mxGeometry relative="1" as="geometry" />
        </mxCell>
        <mxCell id="rAar_EV4x1QA_Q4MDqU7-0" value="" style="rounded=0;whiteSpace=wrap;html=1;fillColor=none;" vertex="1" parent="WIyWlLk6GJQsqaUBKTNV-1">
          <mxGeometry x="300" y="-1150" width="300" height="77" as="geometry" />
        </mxCell>
        <mxCell id="rAar_EV4x1QA_Q4MDqU7-1" value="栅格数据" style="rounded=1;whiteSpace=wrap;html=1;gradientColor=none;fontColor=#333333;" vertex="1" parent="WIyWlLk6GJQsqaUBKTNV-1">
          <mxGeometry x="320" y="-1121.5" width="100" height="40" as="geometry" />
        </mxCell>
        <mxCell id="rAar_EV4x1QA_Q4MDqU7-2" value="输入信息" style="text;html=1;strokeColor=none;fillColor=none;align=center;verticalAlign=middle;whiteSpace=wrap;rounded=0;fontColor=#333333;" vertex="1" parent="WIyWlLk6GJQsqaUBKTNV-1">
          <mxGeometry x="300" y="-1150" width="84" height="20" as="geometry" />
        </mxCell>
        <mxCell id="rAar_EV4x1QA_Q4MDqU7-3" value="过滤条件" style="rounded=1;whiteSpace=wrap;html=1;gradientColor=none;fontColor=#333333;" vertex="1" parent="WIyWlLk6GJQsqaUBKTNV-1">
          <mxGeometry x="470" y="-1121.5" width="100" height="40" as="geometry" />
        </mxCell>
        <mxCell id="rAar_EV4x1QA_Q4MDqU7-7" style="edgeStyle=orthogonalEdgeStyle;rounded=0;orthogonalLoop=1;jettySize=auto;html=1;exitX=1;exitY=0.5;exitDx=0;exitDy=0;entryX=0;entryY=0.5;entryDx=0;entryDy=0;shadow=0;labelBackgroundColor=none;endArrow=block;endFill=0;endSize=8;strokeWidth=1;" edge="1" parent="WIyWlLk6GJQsqaUBKTNV-1" source="rAar_EV4x1QA_Q4MDqU7-5" target="rAar_EV4x1QA_Q4MDqU7-6">
          <mxGeometry relative="1" as="geometry" />
        </mxCell>
        <mxCell id="rAar_EV4x1QA_Q4MDqU7-13" style="edgeStyle=orthogonalEdgeStyle;rounded=0;orthogonalLoop=1;jettySize=auto;html=1;exitX=0.5;exitY=1;exitDx=0;exitDy=0;entryX=0.5;entryY=0;entryDx=0;entryDy=0;shadow=0;labelBackgroundColor=none;endArrow=block;endFill=0;endSize=8;strokeWidth=1;" edge="1" parent="WIyWlLk6GJQsqaUBKTNV-1" source="rAar_EV4x1QA_Q4MDqU7-5" target="rAar_EV4x1QA_Q4MDqU7-9">
          <mxGeometry relative="1" as="geometry" />
        </mxCell>
        <mxCell id="rAar_EV4x1QA_Q4MDqU7-5" value="设置空值" style="rhombus;whiteSpace=wrap;html=1;shadow=0;fontFamily=Helvetica;fontSize=12;align=center;strokeWidth=1;spacing=6;spacingTop=-4;" vertex="1" parent="WIyWlLk6GJQsqaUBKTNV-1">
          <mxGeometry x="390" y="-1040" width="100" height="80" as="geometry" />
        </mxCell>
        <mxCell id="rAar_EV4x1QA_Q4MDqU7-6" value="set nodata" style="rounded=1;whiteSpace=wrap;html=1;fontSize=12;glass=0;strokeWidth=1;shadow=0;" vertex="1" parent="WIyWlLk6GJQsqaUBKTNV-1">
          <mxGeometry x="550" y="-1020" width="120" height="40" as="geometry" />
        </mxCell>
        <mxCell id="rAar_EV4x1QA_Q4MDqU7-8" value="是" style="text;html=1;align=center;verticalAlign=middle;resizable=0;points=[];autosize=1;" vertex="1" parent="WIyWlLk6GJQsqaUBKTNV-1">
          <mxGeometry x="495" y="-1030" width="30" height="20" as="geometry" />
        </mxCell>
        <mxCell id="rAar_EV4x1QA_Q4MDqU7-14" style="edgeStyle=orthogonalEdgeStyle;rounded=0;orthogonalLoop=1;jettySize=auto;html=1;exitX=0.5;exitY=1;exitDx=0;exitDy=0;entryX=0.45;entryY=0.025;entryDx=0;entryDy=0;entryPerimeter=0;shadow=0;labelBackgroundColor=none;endArrow=block;endFill=0;endSize=8;strokeWidth=1;" edge="1" parent="WIyWlLk6GJQsqaUBKTNV-1" source="rAar_EV4x1QA_Q4MDqU7-9" target="rAar_EV4x1QA_Q4MDqU7-11">
          <mxGeometry relative="1" as="geometry" />
        </mxCell>
        <mxCell id="rAar_EV4x1QA_Q4MDqU7-9" value="逐像素判断过滤" style="rounded=1;whiteSpace=wrap;html=1;fontSize=12;glass=0;strokeWidth=1;shadow=0;" vertex="1" parent="WIyWlLk6GJQsqaUBKTNV-1">
          <mxGeometry x="380" y="-910" width="120" height="40" as="geometry" />
        </mxCell>
        <mxCell id="rAar_EV4x1QA_Q4MDqU7-11" value="生成新的栅格输出" style="rounded=1;whiteSpace=wrap;html=1;fontSize=12;glass=0;strokeWidth=1;shadow=0;" vertex="1" parent="WIyWlLk6GJQsqaUBKTNV-1">
          <mxGeometry x="390" y="-840" width="120" height="40" as="geometry" />
        </mxCell>
        <mxCell id="rAar_EV4x1QA_Q4MDqU7-15" value="否" style="text;html=1;align=center;verticalAlign=middle;resizable=0;points=[];autosize=1;" vertex="1" parent="WIyWlLk6GJQsqaUBKTNV-1">
          <mxGeometry x="445" y="-950" width="30" height="20" as="geometry" />
        </mxCell>
      </root>
    </mxGraphModel>
  </diagram>
</mxfile>
